<svg xmlns="http://www.w3.org/2000/svg" width="257.759" height="56.019" viewBox="0 0 257.759 56.019">
    <defs>
        <style>
            .cls-1{fill:#0f123f}
        </style>
    </defs>
    <g id="Logo_with_Tagline-03" transform="translate(-88.16 -78.662)">
        <path id="Path_4520" d="M123.894 105.06a1.5 1.5 0 0 0-1.263-.543h-14.144a2.236 2.236 0 0 0-1.637.458 2.535 2.535 0 0 0-.43 1.712 2.3 2.3 0 0 0 .477 1.6 1.871 1.871 0 0 0 1.459.524h8.12v7.82a25.725 25.725 0 0 1-4.34 1.562 15.9 15.9 0 0 1-3.845.486A13.1 13.1 0 0 1 98 114.3q-3.854-4.387-3.863-11.815 0-7.194 3.508-11.431A11.534 11.534 0 0 1 107 86.819a9.588 9.588 0 0 1 5.117 1.375 5.042 5.042 0 0 0-.094 1.553 5.173 5.173 0 0 0 4.743 4.677 5.52 5.52 0 0 0 .879 0 5.175 5.175 0 0 0-.935-10.309l-.552.075-.346.094a27.277 27.277 0 0 0-4.415-1.459 20.3 20.3 0 0 0-4.471-.505 17.353 17.353 0 0 0-13.47 5.856q-5.295 5.865-5.295 14.874t5.463 14.6q5.407 5.613 14.181 5.613a33.7 33.7 0 0 0 7.248-.788 18.952 18.952 0 0 0 5.427-1.869 1.936 1.936 0 0 0 .786-.674 2.666 2.666 0 0 0 .2-1.225v-9.9h.421a2.993 2.993 0 0 0 1.871-.458 2.1 2.1 0 0 0 .543-1.665 2.694 2.694 0 0 0-.4-1.628z" class="cls-1" transform="translate(0 -.236)"/>
        <ellipse id="Ellipse_36" cx=".851" cy=".926" fill="#fff" rx=".851" ry=".926" transform="translate(117.627 90.625)"/>
        <path id="Path_4521" d="M137.757 117.775V96.783h-.617a6.193 6.193 0 0 1-3.068-.533 1.992 1.992 0 0 1-.833-1.871 2.1 2.1 0 0 1 .692-1.749 3.648 3.648 0 0 1 2.226-.543h4.677a2.3 2.3 0 0 1 1.384.365 1.16 1.16 0 0 1 .486.982V95.7a17.886 17.886 0 0 1 4.733-3.293 11.609 11.609 0 0 1 4.864-1.066 10.037 10.037 0 0 1 7.774 3.078q2.806 3.087 2.806 8.522v14.836h1.553a4.013 4.013 0 0 1 2.376.543 1.974 1.974 0 0 1 .72 1.712 2.077 2.077 0 0 1-.767 1.824 5.089 5.089 0 0 1-2.741.543h-7.259a4.677 4.677 0 0 1-2.685-.5 2.329 2.329 0 0 1-.6-1.871 2.03 2.03 0 0 1 .692-1.768 4.892 4.892 0 0 1 2.61-.486h1.16v-13.657a8.715 8.715 0 0 0-1.74-5.847 6.333 6.333 0 0 0-5.061-2.011 8.653 8.653 0 0 0-5.9 2.264 7.147 7.147 0 0 0-2.563 5.613v13.639h1.151a4.93 4.93 0 0 1 2.647.486 2.03 2.03 0 0 1 .692 1.768 2.367 2.367 0 0 1-.589 1.871 5.238 5.238 0 0 1-2.881.5h-7.736a3.031 3.031 0 0 1-2.011-.58 2.217 2.217 0 0 1-.674-1.787 1.927 1.927 0 0 1 .767-1.777 6.361 6.361 0 0 1 3-.477z" class="cls-1" transform="translate(-2.909 -.817)"/>
        <path id="Path_4522" d="M184.68 130.832h1.4a7.072 7.072 0 0 1 3.246.505 1.983 1.983 0 0 1 .851 1.871 2.189 2.189 0 0 1-.674 1.74 2.862 2.862 0 0 1-1.946.589h-15.1a3.358 3.358 0 0 1-2.152-.524 2.3 2.3 0 0 1-.6-1.805 2.273 2.273 0 0 1 .636-1.768 2.741 2.741 0 0 1 1.918-.589h7.1l5.313-10.458-12.013-23.573a5.9 5.9 0 0 1-2.965-.524 2 2 0 0 1-.8-1.815 2.151 2.151 0 0 1 .655-1.712 2.965 2.965 0 0 1 1.964-.571h9.139a4.181 4.181 0 0 1 2.46.505 2.18 2.18 0 0 1 .617 1.777 1.983 1.983 0 0 1-.814 1.815 6.136 6.136 0 0 1-3.021.524h-1.207l8.877 18.082L196.6 96.82h-1.272a6.492 6.492 0 0 1-3.115-.524 1.946 1.946 0 0 1-.851-1.815 2.179 2.179 0 0 1 .617-1.777 4.247 4.247 0 0 1 2.488-.505h8.092a2.937 2.937 0 0 1 1.983.571 2.17 2.17 0 0 1 .636 1.712 1.992 1.992 0 0 1-.72 1.749 4.8 4.8 0 0 1-2.554.589z" class="cls-1" transform="translate(-5.211 -.872)"/>
        <path id="Path_4523" d="M243.619 104.113q0-4.621-.833-6.239a2.956 2.956 0 0 0-2.862-1.618 4.425 4.425 0 0 0-3.835 2.1 10.2 10.2 0 0 0-1.413 5.762v13.652h.58a4.977 4.977 0 0 1 2.647.477 2.021 2.021 0 0 1 .664 1.777 2.516 2.516 0 0 1-.552 1.777 2.254 2.254 0 0 1-1.7.589h-4.165a2.339 2.339 0 0 1-1.918-.655 5.2 5.2 0 0 1-.505-2.806v-17.342a6.174 6.174 0 0 0-1.113-3.882 3.667 3.667 0 0 0-3.05-1.422 4.537 4.537 0 0 0-2.694.87 6.95 6.95 0 0 0-2.114 2.572v18.045h1.2a4.92 4.92 0 0 1 2.638.486 2.03 2.03 0 0 1 .683 1.768 2.432 2.432 0 0 1-.561 1.871 3.227 3.227 0 0 1-2.123.515H213.9a2.675 2.675 0 0 1-1.871-.58 2.357 2.357 0 0 1-.6-1.787 1.871 1.871 0 0 1 .767-1.777 6.23 6.23 0 0 1 2.975-.477h.645V96.741h-.589a6.352 6.352 0 0 1-3.1-.524 1.955 1.955 0 0 1-.827-1.817 2.151 2.151 0 0 1 .655-1.712 2.965 2.965 0 0 1 1.964-.571h5.014a1.992 1.992 0 0 1 1.422.374 2.806 2.806 0 0 1 .412 1.581 8.859 8.859 0 0 1 2.872-2.123 8.419 8.419 0 0 1 3.48-.692 6.67 6.67 0 0 1 3.742 1 5.744 5.744 0 0 1 2.217 3.012 8.952 8.952 0 0 1 3.18-3.031 8.419 8.419 0 0 1 4.125-.935q4.238 0 6.183 2.75t1.946 8.915v14.8h.524a5.061 5.061 0 0 1 2.694.486 2.03 2.03 0 0 1 .683 1.768 2.441 2.441 0 0 1-.589 1.777 2.357 2.357 0 0 1-1.74.589h-3.957a2.311 2.311 0 0 1-1.936-.786 4.069 4.069 0 0 1-.617-2.5z" class="cls-1" transform="translate(-7.948 -.813)"/>
        <path id="Path_4524" d="M269.07 96.031a11.88 11.88 0 0 1 4.584-3.508 15.36 15.36 0 0 1 6.23-1.216 14.827 14.827 0 0 1 10.963 4.443 15.033 15.033 0 0 1 4.387 10.982 15.36 15.36 0 0 1-15.491 15.435 13.882 13.882 0 0 1-6-1.216 10.2 10.2 0 0 1-4.191-3.667v2.616a2.03 2.03 0 0 1-.318 1.282 1.235 1.235 0 0 1-1.029.393h-5.987a2.685 2.685 0 0 1-1.871-.589 2.376 2.376 0 0 1-.617-1.777 1.936 1.936 0 0 1 .748-1.777 6.249 6.249 0 0 1 2.984-.477h.683V83.422h-.617a6.211 6.211 0 0 1-3.05-.524 2.03 2.03 0 0 1-.814-1.871 2.245 2.245 0 0 1 .655-1.768 2.806 2.806 0 0 1 1.927-.589h4.986a2.451 2.451 0 0 1 1.422.327 1.207 1.207 0 0 1 .44 1.02zm10.224 20.991a10.056 10.056 0 0 0 7.484-2.919 10.29 10.29 0 0 0 2.881-7.568 10.178 10.178 0 0 0-2.928-7.484 10.917 10.917 0 0 0-14.9 0 11.225 11.225 0 0 0 0 15.051 10.009 10.009 0 0 0 7.465 2.919z" class="cls-1" transform="translate(-11.07)"/>
        <path id="Path_4525" d="M308.584 83.422h-5.566c-2.123 0-3.442-.168-3.985-.515a2.011 2.011 0 0 1-.8-1.871 2.254 2.254 0 0 1 .664-1.768 2.891 2.891 0 0 1 1.955-.589h10.8a2.264 2.264 0 0 1 1.375.365 1.169 1.169 0 0 1 .5.935v36.978h10.29a2.582 2.582 0 0 1 1.824.543 2.273 2.273 0 0 1 .571 1.712 2.432 2.432 0 0 1-.561 1.871 3.171 3.171 0 0 1-2.1.515h-24.172a2.862 2.862 0 0 1-1.946-.589 2.254 2.254 0 0 1-.674-1.777 2.077 2.077 0 0 1 .692-1.7 3.255 3.255 0 0 1 2.058-.552h9.074z" class="cls-1" transform="translate(-13.465 -.001)"/>
        <path id="Path_4526" d="M333.946 108.7a9.991 9.991 0 0 0 3.19 7.315q2.928 2.572 8.007 2.572a20.524 20.524 0 0 0 8.353-2.039q4.518-2.049 5.472-2.049a2.3 2.3 0 0 1 1.637.617 2.086 2.086 0 0 1 .655 1.543 2.563 2.563 0 0 1-.692 1.731 7.082 7.082 0 0 1-2.189 1.534 33.832 33.832 0 0 1-6.763 2.442 29.5 29.5 0 0 1-6.932.842q-7.484 0-11.955-4.3t-4.481-11.422a15.407 15.407 0 0 1 4.743-11.721q4.752-4.49 12.385-4.49a16.258 16.258 0 0 1 11.459 4.2 13.265 13.265 0 0 1 4.556 10.15 3.078 3.078 0 0 1-.767 2.451c-.515.421-1.871.627-4.181.627zm.159-4.294h21.328a9.485 9.485 0 0 0-3.265-6.268 10.075 10.075 0 0 0-6.791-2.376 11.674 11.674 0 0 0-7.334 2.292 10.851 10.851 0 0 0-3.938 6.352z" class="cls-1" transform="translate(-15.498 -.813)"/>
    </g>
</svg>
